<svg width="70" height="70" viewBox="0 0 70 70" fill="none" xmlns="http://www.w3.org/2000/svg">
<rect width="70" height="70" rx="18" fill="url(#paint0_linear_58_1799)"/>
<path d="M16.472 34.968C15.64 19.416 19.864 13.08 34.456 13.08C48.408 13.08 52.76 19.672 54.168 31.512L38.296 32.792C37.784 29.016 36.888 26.584 34.84 26.584C33.048 26.584 31.896 28.184 31.896 30.744V32.792C38.168 33.56 47.64 34.648 51.8 35.096C53.016 37.08 53.72 40.92 53.72 43.544C53.72 51.288 47.96 55.768 34.904 55.768C21.528 55.768 17.048 51.16 15.768 39.512L31.96 38.488C32.28 39.512 32.408 43.096 35.352 43.096C37.784 43.096 37.912 41.24 37.912 39.768V37.4C28.504 36.44 21.08 35.48 16.472 34.968Z" fill="white"/>
<defs>
<linearGradient id="paint0_linear_58_1799" x1="-0.500004" y1="71" x2="70" y2="3.10084e-06" gradientUnits="userSpaceOnUse">
<stop stop-color="#019442"/>
<stop offset="1" stop-color="#93C120"/>
</linearGradient>
</defs>
</svg>
