<svg width="36" height="30" viewBox="0 0 36 30" fill="none" xmlns="http://www.w3.org/2000/svg">
<path d="M33.6648 15.242L22.2365 26.9789C22.0767 27.1432 21.873 27.2552 21.6512 27.3005C21.4294 27.3459 21.1995 27.3226 20.9905 27.2337C20.7816 27.1448 20.603 26.9942 20.4775 26.8011C20.3519 26.6079 20.285 26.3808 20.2852 26.1485V20.3138C12.1282 20.7891 6.53551 26.2219 4.96555 27.9428C4.71903 28.2132 4.39575 28.3968 4.04172 28.4676C3.68769 28.5383 3.32095 28.4926 2.99368 28.3369C2.66642 28.1812 2.39531 27.9235 2.21894 27.6004C2.04257 27.2773 1.96992 26.9053 2.01134 26.5373C2.54133 21.8044 5.06555 17.2519 9.11973 13.7191C12.4868 10.7848 16.5795 8.92307 20.2852 8.59737V2.67462C20.285 2.44235 20.3519 2.21525 20.4775 2.02207C20.603 1.82888 20.7816 1.6783 20.9905 1.58939C21.1995 1.50048 21.4294 1.47724 21.6512 1.5226C21.873 1.56797 22.0767 1.6799 22.2365 1.84423L33.6648 13.5812C33.7711 13.6902 33.8554 13.8196 33.9129 13.9621C33.9704 14.1046 34 14.2573 34 14.4116C34 14.5658 33.9704 14.7185 33.9129 14.861C33.8554 15.0035 33.7711 15.1329 33.6648 15.242Z" fill="#019442" stroke="#019442" stroke-width="3"/>
</svg>
